<svg version="1.1" xmlns="http://www.w3.org/2000/svg" fill-rule="evenodd" clip-rule="evenodd" height="929" width="1024" viewBox="0 0 1128 1024"><path d="M507.345455 407.272727c-65.163636-128-230.4-109.381818-265.309091 0 0 0-4.654545 34.909091-9.309091 72.145455V705.163636l104.727272 100.072728V532.945455c0-2.327273 11.636364-134.981818 169.89091-125.672728z m-155.927273 209.454546s174.545455 23.272727 179.2-153.6c-2.327273-167.563636 211.781818-179.2 269.963636-58.181818 0 0-151.272727 2.327273-167.563636 128 0 0 2.327273 155.927273-116.363637 169.890909 0 2.327273-130.327273 25.6-165.236363-86.109091zM651.636364 612.072727c65.163636 128 225.745455 107.054545 262.981818-2.327272 0 0 11.636364-23.272727 11.636363-69.818182v-223.418182l-104.727272-100.072727v272.290909c0 2.327273-11.636364 134.981818-169.890909 123.345454z" fill="#1D1F7C"></path></svg>